<?xml version="1.0" standalone="no"?>
<!DOCTYPE svg PUBLIC "-//W3C//DTD SVG 20010904//EN"
 "http://www.w3.org/TR/2001/REC-SVG-20010904/DTD/svg10.dtd">
<svg version="1.0" xmlns="http://www.w3.org/2000/svg"
 width="128.000000pt" height="128.000000pt" viewBox="0 0 128.000000 128.000000"
 preserveAspectRatio="xMidYMid meet">
<metadata>
Created by potrace 1.11, written by Peter Selinger 2001-2013
</metadata>
<g transform="translate(0.000000,128.000000) scale(0.100000,-0.100000)"
fill="#000000" stroke="none">
<path d="M690 1193 c-8 -2 -57 -25 -108 -50 -110 -54 -225 -156 -283 -250 -31
-50 -37 -68 -37 -118 0 -51 -2 -60 -17 -57 -13 3 -14 0 -6 -17 17 -30 13 -41
-12 -41 -13 0 -34 -11 -46 -24 -46 -49 -20 -143 47 -174 40 -18 54 -31 46 -44
-3 -4 1 -8 8 -8 8 0 22 -17 31 -37 11 -24 47 -62 98 -103 84 -68 124 -108 154
-154 22 -34 45 -31 139 14 81 38 147 97 192 171 33 52 39 58 62 52 23 -5 24
-4 18 20 -3 15 -1 29 5 32 6 4 8 13 5 20 -3 9 6 16 25 20 37 8 98 68 101 98 4
68 -24 117 -70 117 -25 0 -26 7 -7 54 7 16 6 17 -13 7 -31 -17 -33 -15 -30 41
l3 51 -90 73 c-137 112 -177 166 -181 244 -1 25 -3 51 -3 58 -1 13 -6 14 -31
5z"/>
</g>
</svg>
